{
  "accessors": [
    {
      "bufferView": 2,
      "componentType": 5126,
      "count": 932,
      "max": [
        1.2792580127716064,
        44.422035217285156,
        3.3319220542907715
      ],
      "min": [
        -1.2869600057601929,
        -72.83474731445313,
        -3.415215015411377
      ],
      "type": "VEC3"
    },
    {
      "bufferView": 2,
      "byteOffset": 11184,
      "componentType": 5126,
      "count": 932,
      "max": [
        1.0,
        0.9997445344924927,
        0.9999938607215881
      ],
      "min": [
        -0.9999969005584717,
        -0.9494662284851074,
        -0.9999987483024597
      ],
      "type": "VEC3"
    },
    {
      "bufferView": 3,
      "componentType": 5126,
      "count": 932,
      "max": [
        0.9999988675117493,
        0.6370505094528198,
        0.999982476234436,
        1.0
      ],
      "min": [
        -0.9999982714653015,
        -0.9188634753227234,
        -0.9998229146003723,
        1.0
      ],
      "type": "VEC4"
    },
    {
      "bufferView": 1,
      "componentType": 5126,
      "count": 932,
      "max": [
        0.7182250022888184,
        0.9997490048408508
      ],
      "min": [
        0.0002460000105202198,
        0.00024399999529123306
      ],
      "type": "VEC2"
    },
    {
      "bufferView": 0,
      "componentType": 5125,
      "count": 4398,
      "type": "SCALAR"
    }
  ],
  "asset": {
    "extras": {
      "author": "Jysn (https://sketchfab.com/soleusity)",
      "license": "CC-BY-NC-ND-4.0 (http://creativecommons.org/licenses/by-nc-nd/4.0/)",
      "source": "https://sketchfab.com/3d-models/cyberpunk-enigma-katana-ef259946b2a149609187cdcd60f9ff91",
      "title": "Cyberpunk Enigma - Katana"
    },
    "generator": "Sketchfab-16.59.0",
    "version": "2.0"
  },
  "bufferViews": [
    {
      "buffer": 0,
      "byteLength": 17592,
      "name": "floatBufferViews",
      "target": 34963
    },
    {
      "buffer": 0,
      "byteLength": 7456,
      "byteOffset": 17592,
      "byteStride": 8,
      "name": "floatBufferViews",
      "target": 34962
    },
    {
      "buffer": 0,
      "byteLength": 22368,
      "byteOffset": 25048,
      "byteStride": 12,
      "name": "floatBufferViews",
      "target": 34962
    },
    {
      "buffer": 0,
      "byteLength": 14912,
      "byteOffset": 47416,
      "byteStride": 16,
      "name": "floatBufferViews",
      "target": 34962
    }
  ],
  "buffers": [
    {
      "byteLength": 62328,
      "uri": "scene.bin"
    }
  ],
  "extensionsUsed": [
    "KHR_materials_emissive_strength",
    "KHR_materials_specular"
  ],
  "images": [
    {
      "uri": "textures/Handle_baseColor.jpeg"
    },
    {
      "uri": "textures/Handle_metallicRoughness.png"
    },
    {
      "uri": "textures/Handle_emissive.jpeg"
    },
    {
      "uri": "textures/Handle_normal.png"
    }
  ],
  "materials": [
    {
      "doubleSided": true,
      "emissiveFactor": [
        1.0,
        1.0,
        1.0
      ],
      "emissiveTexture": {
        "index": 2
      },
      "extensions": {
        "KHR_materials_emissive_strength": {
          "emissiveStrength": 10.0
        },
        "KHR_materials_specular": {
          "specularColorFactor": [
            1.0,
            1.0,
            1.0
          ],
          "specularFactor": 0.2974905386494064
        }
      },
      "name": "Handle",
      "normalTexture": {
        "index": 3
      },
      "occlusionTexture": {
        "index": 1
      },
      "pbrMetallicRoughness": {
        "baseColorTexture": {
          "index": 0
        },
        "metallicRoughnessTexture": {
          "index": 1
        }
      }
    }
  ],
  "meshes": [
    {
      "name": "defaultMaterial",
      "primitives": [
        {
          "attributes": {
            "NORMAL": 1,
            "POSITION": 0,
            "TANGENT": 2,
            "TEXCOORD_0": 3
          },
          "indices": 4,
          "material": 0,
          "mode": 4
        }
      ]
    }
  ],
  "nodes": [
    {
      "children": [
        1
      ],
      "matrix": [
        0.07252608239650726,
        0.4248356223106382,
        0.9023606181144715,
        0.0,
        0.24794240295886993,
        -0.884020507335663,
        0.39627295732498147,
        0.0,
        0.9660561680793762,
        0.194993332028389,
        -0.16944931447505945,
        0.0,
        0.0,
        0.0,
        0.0,
        1.0
      ],
      "name": "Sketchfab_model"
    },
    {
      "children": [
        2
      ],
      "matrix": [
        1.0,
        0.0,
        0.0,
        0.0,
        0.0,
        -4.371139006309477e-08,
        0.999999999999999,
        0.0,
        0.0,
        -0.999999999999999,
        -4.371139006309477e-08,
        0.0,
        0.0,
        0.0,
        0.0,
        1.0
      ],
      "name": "Collada visual scene group"
    },
    {
      "children": [
        3
      ],
      "matrix": [
        99.989632,
        -1.439905,
        0.0,
        0.0,
        1.439905,
        99.989632,
        -1.9e-05,
        0.0,
        0.0,
        1.9e-05,
        100.0,
        0.0,
        3830.689941,
        -785.408875,
        -2716.148438,
        1.0
      ],
      "name": "lp.001"
    },
    {
      "mesh": 0,
      "name": "defaultMaterial"
    }
  ],
  "samplers": [
    {
      "magFilter": 9729,
      "minFilter": 9987,
      "wrapS": 10497,
      "wrapT": 10497
    }
  ],
  "scene": 0,
  "scenes": [
    {
      "name": "Sketchfab_Scene",
      "nodes": [
        0
      ]
    }
  ],
  "textures": [
    {
      "sampler": 0,
      "source": 0
    },
    {
      "sampler": 0,
      "source": 1
    },
    {
      "sampler": 0,
      "source": 2
    },
    {
      "sampler": 0,
      "source": 3
    }
  ]
}
